<svg xmlns="http://www.w3.org/2000/svg" width="1600" height="1000" viewBox="0 0 1600 1000" role="img" aria-label="Clean home exterior at dusk">
  <defs>
    <linearGradient id="sky" x1="0" y1="0" x2="0" y2="1">
      <stop offset="0%" stop-color="#7eb6ff"/>
      <stop offset="45%" stop-color="#c9e2ff"/>
      <stop offset="100%" stop-color="#e8f2ea"/>
    </linearGradient>
    <linearGradient id="lawn" x1="0" y1="0" x2="0" y2="1">
      <stop offset="0%" stop-color="#3f8f5b"/>
      <stop offset="100%" stop-color="#245c3a"/>
    </linearGradient>
    <linearGradient id="siding" x1="0" y1="0" x2="1" y2="1">
      <stop offset="0%" stop-color="#f7f4ee"/>
      <stop offset="100%" stop-color="#e4ddd0"/>
    </linearGradient>
  </defs>
  <rect width="1600" height="1000" fill="url(#sky)"/>
  <ellipse cx="1280" cy="180" rx="120" ry="120" fill="#fff6d6" opacity="0.85"/>
  <rect y="620" width="1600" height="380" fill="url(#lawn)"/>
  <path d="M180 650 L520 320 L860 650 Z" fill="#2d4a3a"/>
  <rect x="250" y="470" width="540" height="300" fill="url(#siding)"/>
  <rect x="330" y="540" width="110" height="140" fill="#7fb7d9" opacity="0.85"/>
  <rect x="600" y="540" width="110" height="140" fill="#7fb7d9" opacity="0.85"/>
  <rect x="470" y="600" width="100" height="170" fill="#3d2a1d"/>
  <rect x="980" y="520" width="360" height="250" fill="#dfe8e2"/>
  <path d="M960 520 L1160 360 L1360 520 Z" fill="#355848"/>
  <rect x="1080" y="580" width="90" height="110" fill="#8ec4e0" opacity="0.9"/>
  <rect x="1220" y="580" width="90" height="110" fill="#8ec4e0" opacity="0.9"/>
  <path d="M0 780 C220 720, 420 820, 640 760 S1080 700, 1600 780 L1600 1000 L0 1000 Z" fill="#1f4d32" opacity="0.35"/>
</svg>
