<svg xmlns="http://www.w3.org/2000/svg" viewBox="0 0 48 48" role="img" aria-label="Instagram">
  <defs>
    <radialGradient id="ig" cx="30%" cy="107%" r="150%">
      <stop offset="0%" stop-color="#fdf497"/>
      <stop offset="5%" stop-color="#fdf497"/>
      <stop offset="45%" stop-color="#fd5949"/>
      <stop offset="60%" stop-color="#d6249f"/>
      <stop offset="90%" stop-color="#285AEB"/>
    </radialGradient>
  </defs>
  <rect width="48" height="48" rx="12" fill="url(#ig)"/>
  <path fill="#fff" d="M24 15.2c-2.4 0-2.7 0-3.6.1-.9 0-1.4.2-1.8.3-.4.2-.8.4-1.1.7-.3.3-.5.7-.7 1.1-.1.4-.3.9-.3 1.8-.1.9-.1 1.2-.1 3.6s0 2.7.1 3.6c0 .9.2 1.4.3 1.8.2.4.4.8.7 1.1.3.3.7.5 1.1.7.4.1.9.3 1.8.3.9.1 1.2.1 3.6.1s2.7 0 3.6-.1c.9 0 1.4-.2 1.8-.3.4-.2.8-.4 1.1-.7.3-.3.5-.7.7-1.1.1-.4.3-.9.3-1.8.1-.9.1-1.2.1-3.6s0-2.7-.1-3.6c0-.9-.2-1.4-.3-1.8-.2-.4-.4-.8-.7-1.1-.3-.3-.7-.5-1.1-.7-.4-.1-.9-.3-1.8-.3-.9-.1-1.2-.1-3.6-.1zm0 1.6c2.3 0 2.6 0 3.5.1.9 0 1.3.2 1.6.3.4.2.7.3.9.6.2.2.4.5.6.9.1.3.3.7.3 1.6.1.9.1 1.2.1 3.5s0 2.6-.1 3.5c0 .9-.2 1.3-.3 1.6-.2.4-.3.7-.6.9-.2.2-.5.4-.9.6-.3.1-.7.3-1.6.3-.9.1-1.2.1-3.5.1s-2.6 0-3.5-.1c-.9 0-1.3-.2-1.6-.3-.4-.2-.7-.3-.9-.6-.2-.2-.4-.5-.6-.9-.1-.3-.3-.7-.3-1.6-.1-.9-.1-1.2-.1-3.5s0-2.6.1-3.5c0-.9.2-1.3.3-1.6.2-.4.3-.7.6-.9.2-.2.5-.4.9-.6.3-.1.7-.3 1.6-.3.9-.1 1.2-.1 3.5-.1zm0 2.7a4.5 4.5 0 1 0 0 9 4.5 4.5 0 0 0 0-9zm0 7.4a2.9 2.9 0 1 1 0-5.8 2.9 2.9 0 0 1 0 5.8zm5.4-7.6a1.05 1.05 0 1 1 0 2.1 1.05 1.05 0 0 1 0-2.1z"/>
</svg>
