<svg xmlns="http://www.w3.org/2000/svg" viewBox="0 0 48 48" role="img" aria-label="TikTok">
  <rect width="48" height="48" rx="12" fill="#010101"/>
  <!-- cyan offset -->
  <path fill="#25F4EE" d="M31.2 16.2a7.2 7.2 0 0 1-4.2-1.4v12.2a7.5 7.5 0 1 1-7.5-7.5c.4 0 .8.1 1.2.1v3.7a3.8 3.8 0 1 0 2.6 3.6V11.2h3.7a7.2 7.2 0 0 0 6.8 5.9v3.5c-.9 0-1.7-.1-2.6-.3v-4.1z" transform="translate(1.2 1.2)"/>
  <!-- magenta offset -->
  <path fill="#FE2C55" d="M31.2 16.2a7.2 7.2 0 0 1-4.2-1.4v12.2a7.5 7.5 0 1 1-7.5-7.5c.4 0 .8.1 1.2.1v3.7a3.8 3.8 0 1 0 2.6 3.6V11.2h3.7a7.2 7.2 0 0 0 6.8 5.9v3.5c-.9 0-1.7-.1-2.6-.3v-4.1z" transform="translate(-1.2 -0.6)"/>
  <!-- white main note -->
  <path fill="#fff" d="M31.2 16.2a7.2 7.2 0 0 1-4.2-1.4v12.2a7.5 7.5 0 1 1-7.5-7.5c.4 0 .8.1 1.2.1v3.7a3.8 3.8 0 1 0 2.6 3.6V11.2h3.7a7.2 7.2 0 0 0 6.8 5.9v3.5c-.9 0-1.7-.1-2.6-.3v-4.1z"/>
</svg>
